<?xml version="1.0" standalone="no"?><!DOCTYPE svg PUBLIC "-//W3C//DTD SVG 1.1//EN" "http://www.w3.org/Graphics/SVG/1.1/DTD/svg11.dtd"><svg t="1608195598638" class="icon" viewBox="0 0 1024 1024" version="1.1" xmlns="http://www.w3.org/2000/svg" p-id="5671" xmlns:xlink="http://www.w3.org/1999/xlink" width="200" height="200"><defs><style type="text/css"></style></defs><path d="M818.688 923.648l-226.304-115.2c5.632-1.024 11.776-2.56 17.408-4.096 5.632-2.048 11.264-4.096 16.384-6.656 5.632-2.56 10.752-5.12 15.872-8.704 5.12-3.072 10.24-6.656 14.848-10.24l228.864 112.64c-5.12 4.096-10.24 7.68-15.36 11.264-5.12 3.584-10.752 6.656-16.384 9.216s-11.264 5.12-17.408 7.168c-6.144 1.536-12.288 3.072-17.92 4.608" fill="#224365" p-id="5672"></path><path d="M885.248 891.392l-228.864-112.64c1.536-1.024 3.072-2.56 4.608-4.096 1.536-1.536 3.072-2.56 4.608-4.096 1.536-1.536 3.072-3.072 4.608-4.096l4.608-4.608 229.376 111.616-4.608 4.608-4.608 4.608-4.608 4.608c-1.536 1.024-3.584 2.56-5.12 4.096" fill="#214162" p-id="5673"></path><path d="M904.704 873.472l-229.376-111.616 3.584-3.584c1.024-1.536 2.56-2.56 3.584-4.096 1.024-1.536 2.048-2.56 3.584-4.096 1.024-1.536 2.048-2.56 3.072-4.096l229.888 110.592c-1.024 1.536-2.048 3.072-3.584 4.608-1.024 1.536-2.56 3.072-3.584 4.096-1.024 1.536-2.56 3.072-3.584 4.096-1.536 1.024-2.56 2.56-3.584 4.096" fill="#203F5F" p-id="5674"></path><path d="M918.528 856.576l-229.888-110.592c1.024-1.536 2.048-2.56 3.072-4.096 1.024-1.536 2.048-2.56 3.072-4.096 1.024-1.536 2.048-2.56 2.56-4.096 1.024-1.536 1.536-2.56 2.56-4.096l230.4 109.568c-1.024 1.536-2.048 3.072-2.56 4.608l-3.072 4.608c-1.024 1.536-2.048 3.072-3.072 4.096-1.024 1.024-2.048 2.56-3.072 4.096" fill="#1F3D5C" p-id="5675"></path><path d="M930.304 839.168l-230.4-109.568c1.024-1.536 1.536-3.072 2.56-4.096 1.024-1.536 1.536-3.072 2.56-4.096 1.024-1.536 1.536-3.072 2.56-4.608 0.512-1.536 1.536-3.072 2.048-4.608l230.912 108.544c-0.512 1.536-1.536 3.072-2.56 4.608-1.024 1.536-1.536 3.072-2.56 4.608-1.024 1.536-1.536 3.072-2.56 4.608-0.512 1.536-1.536 3.072-2.56 4.608" fill="#1E3B59" p-id="5676"></path><path d="M940.544 820.736l-230.912-108.544c1.024-1.536 1.536-3.072 2.048-4.608s1.536-3.072 2.048-5.12c0.512-1.536 1.536-3.072 2.048-5.12 0.512-1.536 1.024-3.584 2.048-5.12l231.424 107.52c-0.512 1.536-1.536 3.584-2.048 5.12-0.512 1.536-1.536 3.584-2.048 5.12-0.512 1.536-1.536 3.584-2.048 5.12-1.024 2.048-2.048 3.584-2.56 5.632" fill="#1D3956" p-id="5677"></path><path d="M949.248 799.744l-231.424-107.52c0.512-2.048 1.536-4.096 2.048-6.144 0.512-2.048 1.024-4.096 2.048-6.144l1.536-6.144 1.536-6.144 231.936 105.984c-0.512 2.048-1.024 4.608-1.536 6.656-0.512 2.048-1.024 4.608-2.048 6.656-0.512 2.048-1.536 4.096-2.048 6.656-0.512 2.048-1.536 4.096-2.048 6.144" fill="#1C3753" p-id="5678"></path><path d="M956.928 773.632l-231.936-105.984c0.512-2.56 1.024-5.632 1.536-8.192 0.512-2.56 1.024-5.632 1.024-8.192 0.512-2.56 0.512-5.632 1.024-8.192 0-2.56 0.512-5.632 0.512-8.192 0.512-15.36-0.512-29.696-3.584-42.496-3.072-13.312-7.68-25.6-13.824-36.352-6.144-10.752-13.824-20.48-22.528-28.672-8.704-8.192-18.432-14.336-29.696-18.944l232.448 98.816c11.264 4.608 20.992 11.264 30.208 19.456 8.704 8.192 16.384 18.432 22.528 29.696 6.144 11.264 10.752 24.064 13.824 37.888 3.072 13.824 4.096 29.184 3.072 45.056 0 3.072-0.512 5.632-0.512 8.704-0.512 3.072-0.512 5.632-1.024 8.704-0.512 3.072-1.024 5.632-1.536 8.704-0.512 2.56-1.024 5.632-1.536 8.192" fill="#1B3550" p-id="5679"></path><path d="M814.08 807.936l-227.84-109.568 77.312-99.328 231.424 103.424z" fill="#1C3753" p-id="5680"></path><path d="M748.544 914.432L523.776 798.72c0.512 0 0.512 0.512 1.024 0.512s0.512 0.512 1.024 0.512 0.512 0.512 1.024 0.512 0.512 0.512 1.024 0.512L752.64 916.48c-0.512 0-0.512-0.512-1.024-0.512s-0.512-0.512-1.024-0.512-0.512-0.512-1.024-0.512-0.512-0.512-1.024-0.512" fill="#1F3D5C" p-id="5681"></path><path d="M752.64 916.48l-224.768-115.712c1.536 0.512 2.56 1.024 4.096 1.536 1.536 0.512 2.56 1.024 4.096 1.536 1.536 0.512 2.56 1.024 4.096 1.536 1.536 0.512 2.56 1.024 4.096 1.024l225.28 115.712c-1.536-0.512-3.072-1.024-4.096-1.024-1.536-0.512-3.072-1.024-4.096-1.536-1.536-0.512-2.56-1.024-4.096-1.536l-4.608-1.536" fill="#203F5F" p-id="5682"></path><path d="M769.536 922.624l-225.28-115.712c1.536 0.512 3.584 1.024 5.12 1.024 1.536 0.512 3.584 0.512 5.12 1.024 1.536 0.512 3.584 0.512 5.12 0.512 1.536 0 3.584 0.512 5.632 0.512l225.792 115.712c-2.048 0-3.584 0-5.632-0.512-2.048 0-3.584-0.512-5.632-0.512-2.048-0.512-3.584-0.512-5.12-1.024-1.536-0.512-3.072-1.024-5.12-1.024" fill="#214162" p-id="5683"></path><path d="M791.552 925.696l-225.792-115.712h13.312c2.048 0 4.608-0.512 6.656-0.512 2.048-0.512 4.608-0.512 6.656-1.024l226.304 115.2c-2.56 0.512-4.608 1.024-7.168 1.024-2.048 0.512-4.608 0.512-6.656 0.512s-4.608 0.512-6.656 0.512h-6.656" fill="#224365" p-id="5684"></path><path d="M947.712 523.776L712.704 430.08c-2.048-1.536-4.608-3.072-7.168-4.608-2.56-1.536-4.608-2.56-7.168-4.096-2.56-1.536-5.12-2.56-7.68-3.584-2.56-1.024-5.12-2.048-7.68-3.584l233.984 93.184c2.56 1.024 5.632 2.048 8.192 3.584 2.56 1.024 5.12 2.56 7.68 3.584 2.56 1.536 5.12 2.56 7.168 4.096 3.072 2.048 5.12 3.584 7.68 5.12" fill="#1B3550" p-id="5685"></path><path d="M834.56 573.44l-230.912-97.792c2.56-0.512 5.12-0.512 7.68-1.024 2.56 0 5.12-0.512 7.68-0.512h7.68c2.56 0 5.12 0 7.68 0.512l231.936 97.28c-2.56 0-5.12-0.512-7.68-0.512h-7.68c-2.56 0-5.12 0.512-8.192 0.512-3.072 1.024-5.632 1.024-8.192 1.536" fill="#224365" p-id="5686"></path><path d="M865.792 572.416l-231.936-97.28c2.048 0 4.096 0.512 6.144 0.512 2.048 0.512 4.096 0.512 6.144 1.024l6.144 1.536c2.048 0.512 4.096 1.024 5.632 1.536l232.448 97.28-6.144-1.536-6.144-1.536c-2.048-0.512-4.096-0.512-6.144-1.024-1.536 0-3.584-0.512-6.144-0.512" fill="#214162" p-id="5687"></path><path d="M890.88 577.024l-232.448-97.28c1.024 0.512 1.536 0.512 2.56 1.024s1.536 0.512 2.56 1.024 1.536 0.512 2.56 1.024 1.536 0.512 2.56 1.024l232.96 97.28c-1.024-0.512-1.536-0.512-2.56-1.024s-1.536-0.512-2.56-1.024-1.536-0.512-2.56-1.024c-1.536-0.512-2.048-0.512-3.072-1.024" fill="#203F5F" p-id="5688"></path><path d="M734.208 794.112l-225.28-110.08 19.968-29.696 226.304 108.032z" fill="#1B3651" p-id="5689"></path><path d="M894.976 702.464l24.064 18.432-105.472 133.632-79.36-60.416 20.992-31.744 58.88 45.568z" fill="#336699" p-id="5690"></path><path d="M813.568 854.528L586.752 742.4l-77.824-58.368 225.28 110.08zM901.632 502.784l-233.984-93.696 4.608-121.856 235.52 86.528z" fill="#1A334D" p-id="5691"></path><path d="M735.232 938.496l-223.744-117.248c-11.264-5.632-21.504-13.312-30.208-22.528-9.216-9.216-16.896-19.968-23.04-31.744-6.144-11.776-11.264-25.6-14.336-39.936-3.072-14.336-4.608-29.696-4.096-46.08 0-3.072 0-6.656 0.512-9.728 0-3.072 0.512-6.656 1.024-9.728 0.512-3.072 1.024-6.144 1.536-9.728l1.536-9.216 223.744 108.544c-0.512 3.072-1.536 6.656-2.048 10.24-0.512 3.584-1.024 6.656-1.536 10.24-0.512 3.584-1.024 6.656-1.024 10.24-0.512 3.584-0.512 6.656-0.512 10.24-0.512 17.408 0.512 33.792 4.096 48.64 3.072 15.36 8.192 29.184 14.336 41.472 6.656 12.288 14.336 23.552 23.552 33.28 8.192 9.216 18.944 16.896 30.208 23.04" fill="#1B3550" p-id="5692"></path><path d="M667.648 751.616l-223.744-108.544 1.536-7.68c0.512-2.56 1.024-5.12 2.048-7.168 0.512-2.56 1.536-5.12 2.048-7.168 1.024-2.56 1.536-4.608 2.56-7.168l224.768 107.008c-1.024 2.56-1.536 5.12-2.56 7.68s-1.536 5.12-2.56 7.68c-0.512 2.56-1.536 5.12-2.048 7.68-1.024 2.048-1.536 4.608-2.048 7.68" fill="#1C3753" p-id="5693"></path><path d="M676.352 720.384l-224.768-107.008c0.512-2.048 1.536-4.096 2.048-6.144 1.024-2.048 1.536-4.096 2.56-6.144s1.536-4.096 2.56-6.144c1.024-2.048 2.048-4.096 2.56-5.632l225.28 105.472-3.072 6.144c-1.024 2.048-2.048 4.096-2.56 6.144-1.024 2.048-1.536 4.096-2.56 6.144s-1.024 5.12-2.048 7.168" fill="#1D3956" p-id="5694"></path><path d="M687.104 694.784l-225.28-105.472c1.024-2.048 2.048-3.584 2.56-5.632 1.024-2.048 2.048-3.584 3.072-5.12 1.024-1.536 2.048-3.584 3.072-5.12 1.024-1.536 2.048-3.584 3.072-5.12l225.792 104.448c-1.024 2.048-2.048 3.584-3.072 5.632-1.024 2.048-2.048 3.584-3.072 5.632-1.024 2.048-2.048 3.584-3.072 5.632-1.024 1.536-2.048 3.584-3.072 5.12" fill="#1E3B59" p-id="5695"></path><path d="M699.392 672.256L473.6 568.32c1.024-1.536 2.048-3.584 3.072-5.12 1.024-1.536 2.048-3.584 3.584-5.12 1.024-1.536 2.56-3.072 3.584-5.12 1.024-1.536 2.56-3.072 3.584-4.608l226.304 102.912c-1.536 1.536-2.56 3.584-3.584 5.12-1.024 1.536-2.56 3.584-3.584 5.12-1.024 1.536-2.56 3.584-3.584 5.12-1.024 2.048-2.56 4.096-3.584 5.632" fill="#1F3D5C" p-id="5696"></path><path d="M714.24 651.264l-226.304-102.912c1.536-1.536 2.56-3.584 4.096-5.12 1.536-1.536 2.56-3.072 4.096-5.12 1.536-1.536 3.072-3.072 4.096-4.608l4.608-4.608 227.328 101.888c-1.536 1.536-3.072 3.072-4.608 5.12-1.536 1.536-3.072 3.584-4.608 5.12-1.536 1.536-3.072 3.584-4.608 5.12-1.536 1.536-3.072 3.072-4.096 5.12" fill="#203F5F" p-id="5697"></path><path d="M731.648 630.272l-227.328-101.888c1.536-2.048 3.584-3.584 5.632-5.12 2.048-1.536 3.584-3.584 5.632-5.12 2.048-1.536 3.584-3.072 5.632-5.12l6.144-4.608 228.352 100.352c-2.048 1.536-4.096 3.072-6.144 5.12-2.048 1.536-4.096 3.584-6.144 5.12-2.048 1.536-4.096 3.584-5.632 5.632-2.048 2.048-4.096 4.096-6.144 5.632" fill="#214162" p-id="5698"></path><path d="M755.712 609.28L527.36 508.928c5.632-4.608 11.776-8.192 17.92-11.776 6.144-3.584 12.288-6.656 18.944-9.728 6.144-2.56 12.8-5.12 19.456-7.168 6.656-2.048 13.312-3.584 19.968-4.096l230.912 97.28c-7.168 1.024-13.824 2.56-20.48 4.608-6.656 2.048-13.824 4.608-19.968 7.68-6.656 3.072-13.312 6.656-19.456 10.24-7.168 4.096-13.312 8.192-18.944 13.312" fill="#224365" p-id="5699"></path><path d="M834.56 573.44c22.016-3.584 43.008-1.536 61.44 5.12 18.432 6.656 34.816 17.92 48.128 32.768 13.312 14.848 23.552 32.768 30.72 53.76 6.656 20.992 9.728 44.544 8.192 70.144-1.536 25.6-7.168 50.176-15.872 73.728-9.216 23.552-21.504 45.568-36.352 64.512-14.848 19.456-32.256 35.84-51.712 49.152-19.456 12.8-40.448 22.016-61.952 26.624-22.016 4.096-42.496 3.072-61.44-2.56-18.944-5.632-35.84-15.872-50.176-30.208-14.336-14.336-25.6-32.256-32.768-53.248-7.68-20.992-11.264-45.056-10.24-71.68 1.024-26.112 6.656-52.224 15.872-76.8 9.216-24.576 22.528-47.104 37.888-67.072 15.872-19.968 33.792-36.864 54.272-49.664 19.968-12.288 41.472-20.992 64-24.576z m-15.872 350.208c18.944-3.584 37.376-11.776 53.76-22.528 16.384-11.264 31.744-25.088 44.544-41.984 12.8-16.384 23.552-35.328 31.232-55.808s12.288-41.984 13.824-64c1.024-22.016-1.536-42.496-7.168-60.928-5.632-17.92-14.848-33.792-26.624-46.08-11.776-12.8-25.6-22.016-41.472-27.648-15.872-5.632-33.792-7.168-52.736-4.096-19.456 3.072-37.888 10.752-55.296 21.504-17.408 10.752-32.768 25.6-46.08 42.496-13.312 16.896-24.576 36.352-32.256 57.344s-12.8 43.52-13.824 66.048c-1.024 23.04 2.048 43.52 8.704 61.952 6.656 17.92 16.384 33.792 28.16 46.08 12.288 12.288 26.624 20.992 43.008 25.6 15.36 4.608 33.28 5.632 52.224 2.048" fill="#336699" p-id="5700"></path><path d="M661.504 602.112l-225.28-100.864c1.024 0 1.536 0 2.56-0.512h7.168l225.792 100.864h-7.68c-1.024 0.512-2.048 0.512-2.56 0.512" fill="#224365" p-id="5701"></path><path d="M671.232 601.6L445.44 500.736h3.072c0.512 0 1.024 0 1.536 0.512 0.512 0 1.024 0 1.536 0.512l225.792 100.864c-0.512 0-1.024 0-1.536-0.512-0.512 0-1.024 0-1.536-0.512h-3.072" fill="#214162" p-id="5702"></path><path d="M677.376 602.624L451.072 501.76h2.048l225.792 100.864h-0.512-0.512-0.512c0 0.512 0 0 0 0" fill="#203F5F" p-id="5703"></path><path d="M606.72 724.992L384 616.96h8.192l222.72 108.032H608.768c-1.024-0.512-1.536 0-2.048 0" fill="#224365" p-id="5704"></path><path d="M614.4 724.48l-222.72-108.032h3.072c0.512 0 1.024 0 1.536 0.512 0.512 0 1.024 0 1.536 0.512l222.72 108.032c-0.512 0-1.024 0-1.536-0.512-0.512 0-1.024 0-1.536-0.512h-3.072" fill="#214162" p-id="5705"></path><path d="M620.544 725.504l-222.72-108.032c0.512 0 0.512 0 1.024 0.512 0.512 0 0.512 0 1.024 0.512 0.512 0 0.512 0 1.024 0.512s0.512 0 1.024 0.512l222.72 108.032c-0.512 0-0.512-0.512-1.024-0.512s-0.512 0-1.024-0.512c-0.512 0-0.512 0-1.024-0.512s-1.024-0.512-1.024-0.512" fill="#203F5F" p-id="5706"></path><path d="M624.128 727.04l-222.72-108.032 222.72 108.032" fill="#1F3D5C" p-id="5707"></path><path d="M745.984 355.84l-230.912-87.04 158.72-18.432 236.032 84.48z" fill="#1F3D5C" p-id="5708"></path><path d="M740.352 391.168L509.952 302.08c-4.096-1.536-8.192-4.096-11.264-7.168-3.584-3.072-6.144-6.656-8.704-10.752s-4.096-8.704-5.632-13.824c-1.024-5.12-1.536-10.752-1.536-16.384l229.888 86.528c0 6.144 0.512 12.288 1.536 17.408 1.024 5.632 3.072 10.24 5.632 14.848 2.56 4.096 5.632 8.192 8.704 11.264 3.584 3.072 7.68 5.12 11.776 7.168" fill="#1B3550" p-id="5709"></path><path d="M631.808 487.424L406.016 392.192h8.192L640 486.912H633.856c-0.512 0.512-1.536 0.512-2.048 0.512" fill="#224365" p-id="5710"></path><path d="M640 486.912L413.696 391.68h1.536c0.512 0 1.024 0 1.536 0.512 0.512 0 1.024 0 1.536 0.512 0.512 0 1.024 0 1.536 0.512l226.304 95.232c-0.512 0-1.024-0.512-1.536-0.512-0.512 0-1.024 0-1.536-0.512-0.512 0-1.024 0-1.536-0.512-0.512 0.512-1.024 0.512-1.536 0" fill="#214162" p-id="5711"></path><path d="M645.632 488.448L419.328 393.216h2.048l226.304 95.232h-0.512-0.512-0.512-0.512" fill="#203F5F" p-id="5712"></path><path d="M909.824 334.848l-236.032-84.48-152.576-189.44 233.472 75.264z" fill="#1A334D" p-id="5713"></path><path d="M635.904 368.128L408.576 279.04h8.192l227.328 89.088H637.952c-0.512-0.512-1.024 0-2.048 0" fill="#224365" p-id="5714"></path><path d="M644.096 368.128L416.768 279.04h1.536c0.512 0 1.024 0 1.536 0.512 0.512 0 1.024 0 1.536 0.512 0.512 0 1.024 0.512 1.536 0.512L650.24 369.152c-0.512 0-1.024-0.512-1.536-0.512-0.512 0-1.024 0-1.536-0.512-0.512 0-1.024 0-1.536-0.512-0.512 0.512-1.024 0.512-1.536 0.512" fill="#214162" p-id="5715"></path><path d="M650.24 369.152L422.4 280.064h2.048l227.84 89.088h-2.048" fill="#203F5F" p-id="5716"></path><path d="M713.216 340.48l-229.888-87.04 5.12-189.44 232.448 75.776z" fill="#1A334D" p-id="5717"></path><path d="M451.584 751.104l-217.088-111.616 149.504-22.528 222.72 108.032z" fill="#1F3F5E" p-id="5718"></path><path d="M433.152 795.136l-216.064-113.664 216.064 113.664c0.512 0 0.512 0 0 0" fill="#224365" p-id="5719"></path><path d="M433.664 795.136L217.6 680.96l216.064 114.176" fill="#214162" p-id="5720"></path><path d="M433.664 795.136L217.6 680.96l216.064 114.176" fill="#203F5F" p-id="5721"></path><path d="M433.664 795.136L217.6 680.96l216.064 113.664v0.512" fill="#1F3D5C" p-id="5722"></path><path d="M433.664 794.624L217.6 680.96l216.064 113.664" fill="#1E3B59" p-id="5723"></path><path d="M433.664 794.624L217.6 680.96l216.064 113.664" fill="#1D3956" p-id="5724"></path><path d="M433.664 794.624L217.6 680.96l216.064 113.664" fill="#1C3753" p-id="5725"></path><path d="M433.664 794.624L217.6 680.96c0-0.512-0.512-1.024-1.536-2.048-1.024-1.024-2.048-1.536-3.072-3.072-1.024-1.024-2.048-2.56-3.072-4.096-1.024-1.536-1.536-3.072-1.536-4.608L424.96 780.8c0 1.536 0.512 3.584 1.536 4.608 1.024 1.536 2.048 3.072 3.072 4.096l3.072 3.072c0.512 1.024 1.024 1.536 1.024 2.048" fill="#1B3550" p-id="5726"></path><path d="M424.96 780.8l-216.064-113.152v-9.216l216.064 112.64z" fill="#1A334D" p-id="5727"></path><path d="M606.72 724.992c3.584-0.512 6.656-0.512 9.728-0.512 3.072 0.512 5.632 1.024 7.68 2.048 2.048 1.024 4.096 2.56 5.12 4.096 1.024 1.536 2.048 3.584 2.048 5.12l-0.512 7.68c0 2.56-1.024 4.608-2.56 6.656s-4.096 4.096-7.68 6.144c-3.584 2.048-7.68 3.584-13.312 5.12-5.632 1.536-11.776 3.072-19.456 4.608v2.048l-155.136 26.624c1.024 0 1.024-0.512 0-1.536-0.512-0.512-2.048-1.536-3.072-3.072-1.024-1.024-2.56-2.56-3.584-4.608-1.024-1.536-1.536-3.584-1.536-5.632l0.512-9.728c0-2.56 1.024-4.608 2.56-7.168 1.536-2.048 3.584-4.096 6.144-6.144 2.56-1.536 5.12-3.072 8.704-4.608 3.072-1.024 6.656-2.048 10.24-2.56l154.112-24.576z" fill="#254B70" p-id="5728"></path><path d="M424.96 771.072l-216.064-112.64v-0.512-0.512-0.512-0.512l216.064 112.64v2.048" fill="#1B3550" p-id="5729"></path><path d="M424.96 769.024l-216.064-112.64v-0.512-0.512-0.512-0.512l216.064 112.64v1.024s0.512 0.512 0 1.024c0.512-0.512 0.512 0 0 0" fill="#1C3753" p-id="5730"></path><path d="M425.472 767.488l-216.064-112.64v-0.512-0.512-0.512-0.512l216.064 112.64v1.024c0.512 0 0.512 0.512 0 1.024 0.512-0.512 0-0.512 0 0" fill="#1D3956" p-id="5731"></path><path d="M426.496 765.952l-216.064-112.64v-0.512-0.512-0.512-0.512l216.064 112.128v2.56c0-0.512 0-0.512 0 0" fill="#1E3B59" p-id="5732"></path><path d="M427.008 764.416l-216.064-112.128v-0.512-0.512-0.512l0.512-0.512 216.576 112.64-0.512 0.512-0.512 0.512c0.512 0 0.512 0 0 0.512 0-0.512 0 0 0 0" fill="#1F3D5C" p-id="5733"></path><path d="M428.032 762.88l-216.064-112.128s0-0.512 0.512-0.512c0 0 0-0.512 0.512-0.512 0 0 0-0.512 0.512-0.512l0.512-0.512L430.08 760.832l-0.512 0.512-0.512 0.512-1.024 1.024c0.512-0.512 0 0 0 0" fill="#203F5F" p-id="5734"></path><path d="M429.568 761.344l-216.064-112.128 0.512-0.512 0.512-0.512 0.512-0.512 0.512-0.512 216.064 112.128-0.512 0.512-0.512 0.512-0.512 0.512-0.512 0.512" fill="#214162" p-id="5735"></path><path d="M432.64 758.784l-216.064-112.128c1.024-1.024 2.56-1.536 4.096-2.56 1.536-0.512 3.072-1.536 4.608-2.048 1.536-0.512 3.072-1.024 5.12-1.536 1.536-0.512 3.584-1.024 5.12-1.024l217.088 111.104c-2.048 0.512-3.584 0.512-5.632 1.024-1.536 0.512-3.584 1.024-5.12 1.536-1.536 0.512-3.072 1.536-4.608 2.048-2.048 1.536-3.584 2.56-4.608 3.584" fill="#224365" p-id="5736"></path><path d="M314.368 970.752l-209.92-124.416 294.912-50.688 220.672 117.248z" fill="#203F5F" p-id="5737"></path><path d="M437.248 636.928l-217.6-105.472 216.064-30.208 225.792 100.864z" fill="#1F3E5D" p-id="5738"></path><path d="M415.744 672.768l-216.576-107.52c-1.024-0.512-1.536-1.024-2.56-1.536l-1.536-1.536c-0.512-0.512-1.024-1.536-1.024-2.048 0-0.512-0.512-1.536-0.512-2.048l216.576 107.008c0 1.024 0 1.536 0.512 2.56 0 0.512 0.512 1.536 1.024 2.048l2.048 2.048c0.512 0 1.024 0.512 2.048 1.024" fill="#1B3550" p-id="5739"></path><path d="M410.112 665.088l-216.576-107.52v-9.216l216.576 106.496z" fill="#1A334D" p-id="5740"></path><path d="M410.112 654.848l-216.576-106.496v-0.512-0.512-0.512-0.512l216.576 106.496v2.048" fill="#1B3550" p-id="5741"></path><path d="M410.624 653.312l-216.576-106.496v-0.512-0.512-0.512-0.512l216.576 106.496v2.048" fill="#1C3753" p-id="5742"></path><path d="M410.624 652.288l-216.576-106.496 216.576 106.496v1.024c0 0.512 0.512-1.536 0-1.024 0.512 0 0 0 0 0" fill="#1D3956" p-id="5743"></path><path d="M411.136 651.264L194.56 544.768v-0.512-0.512-0.512-0.512l217.6 107.52v1.024c-0.512-0.512-0.512-0.512-1.024 0 0-0.512 0 0 0 0" fill="#1E3B59" p-id="5744"></path><path d="M412.16 650.24l-216.576-106.496v-0.512-0.512-0.512-0.512l216.576 106.496v2.048c0-0.512 0-0.512 0 0" fill="#1F3D5C" p-id="5745"></path><path d="M412.672 648.704l-216.576-106.496 0.512-0.512 0.512-0.512 0.512-0.512 0.512-0.512 217.088 106.496s0 0.512-0.512 0.512 0 0.512-0.512 0.512c-1.024 0.512-1.024 0.512-1.536 1.024 0.512 0 0 0 0 0" fill="#203F5F" p-id="5746"></path><path d="M414.208 647.168l-217.088-106.496 0.512-0.512 0.512-0.512 0.512-0.512 0.512-0.512L416.768 645.12l-0.512 0.512-0.512 0.512-0.512 0.512-1.024 0.512" fill="#214162" p-id="5747"></path><path d="M416.768 645.12L199.68 538.624c1.024-1.024 2.56-1.536 4.096-2.56 1.536-1.024 3.072-1.536 4.608-2.048 1.536-0.512 3.584-1.024 5.12-1.536 2.048-0.512 3.584-1.024 5.632-1.024l217.6 105.472c-2.048 0.512-4.096 0.512-5.632 1.024-2.048 0.512-3.584 1.024-5.632 2.048-1.536 0.512-3.584 1.536-5.12 2.56-1.024 0.512-2.048 1.536-3.584 2.56" fill="#224365" p-id="5748"></path><path d="M661.504 602.112c3.584-0.512 6.656-0.512 9.728-0.512 3.072 0 5.632 0.512 7.68 1.536 2.048 1.024 4.096 2.048 5.12 3.584 1.024 1.536 2.048 3.072 2.048 5.12l-0.512 9.728c0 2.048-1.024 4.096-2.048 5.632-1.536 2.048-3.072 3.584-5.632 5.12-2.56 1.536-5.12 3.072-8.192 4.096-3.072 1.024-6.144 2.048-9.728 2.56l-223.744 35.328c-3.584 0.512-7.168 0.512-10.24 0.512-3.072 0-6.144-0.512-8.192-1.536-2.56-1.024-4.608-2.048-5.632-3.584-1.536-1.536-2.048-3.072-2.048-5.12v-9.728c0-2.048 1.024-4.096 2.56-5.632 1.536-2.048 3.584-3.584 6.144-5.12 2.56-1.536 5.632-3.072 8.704-4.096 3.072-1.024 6.656-2.048 10.24-2.56l223.744-35.328z" fill="#254B70" p-id="5749"></path><path d="M296.448 1014.272l-208.896-126.976c-5.12-3.072-10.24-7.168-14.336-11.776-4.096-4.608-8.192-9.728-10.752-15.872-3.072-6.144-5.12-12.288-7.168-19.456-1.536-7.168-2.56-14.336-2.56-22.528L261.12 941.568c0 8.192 0.512 16.384 2.048 23.552 1.536 7.168 4.096 14.336 7.168 20.48 3.072 6.144 6.656 11.776 11.264 16.384 4.096 4.608 9.216 8.704 14.848 12.288" fill="#144F7F" p-id="5750"></path><path d="M440.32 514.56L221.184 415.744l184.832-23.552 225.792 95.232z" fill="#1F3E5D" p-id="5751"></path><path d="M419.328 552.96L201.216 451.584c-1.024-0.512-2.048-1.024-2.56-1.536-0.512-0.512-1.536-1.024-2.048-2.048-0.512-0.512-1.024-1.536-1.024-2.048-0.512-0.512-0.512-1.536-0.512-2.56l218.112 100.864c0 1.024 0 1.536 0.512 2.56s0.512 1.536 1.024 2.048c0.512 0.512 1.024 1.536 2.048 2.048 1.024 1.024 1.536 1.536 2.56 2.048" fill="#1B3550" p-id="5752"></path><path d="M413.184 544.256L195.072 443.904l0.512-9.728 217.6 100.352z" fill="#1A334D" p-id="5753"></path><path d="M631.808 487.424c3.584-0.512 6.656-0.512 9.728 0 3.072 0.512 5.632 1.536 8.192 2.56 2.048 1.024 4.096 2.56 5.632 4.096 1.024 1.536 2.048 3.584 2.048 5.632l-0.512 9.728c0 2.048-1.024 4.096-2.048 5.632-1.536 2.048-3.584 3.584-5.632 5.12-2.56 1.536-5.12 3.072-8.192 4.096-3.072 1.024-6.144 2.048-9.728 2.56L440.32 554.496c-3.584 0.512-7.168 0.512-10.24 0.512-3.072 0-6.144-1.024-8.192-1.536-2.56-1.024-4.608-2.048-5.632-3.584-1.536-1.536-2.048-3.072-2.048-5.12v-10.24c0-2.56 1.024-5.12 2.56-7.168 1.536-2.048 3.584-4.096 6.144-6.144 2.56-1.536 5.632-3.072 8.704-4.608 3.072-1.024 6.656-2.048 10.24-2.56l189.952-26.624z" fill="#254B70" p-id="5754"></path><path d="M413.184 534.528L195.584 434.176v-0.512-0.512-0.512-0.512L413.696 532.48V534.016c-0.512 0-0.512 0-0.512 0.512" fill="#1B3550" p-id="5755"></path><path d="M413.696 532.48L195.584 432.128v-0.512-0.512-0.512-0.512l218.112 99.84v2.56c0-0.512 0-0.512 0 0" fill="#1C3753" p-id="5756"></path><path d="M414.208 530.432L196.096 430.592V430.08v-0.512-0.512-0.512L414.72 528.896v1.024c0 0.512-0.512 0-0.512 0.512" fill="#1D3956" p-id="5757"></path><path d="M414.72 528.896L196.608 429.056v-0.512-0.512-0.512-0.512L414.72 526.848v1.024c0.512 0.512 0 0.512 0 1.024" fill="#1E3B59" p-id="5758"></path><path d="M415.744 527.872L197.12 428.032v-0.512-0.512l0.512-0.512 0.512-0.512 218.112 99.84-0.512 0.512-0.512 0.512c0.512 0 0.512 0.512 0.512 1.024 0-0.512 0-0.512 0 0" fill="#1F3D5C" p-id="5759"></path><path d="M416.768 526.336L198.144 426.496s0-0.512 0.512-0.512c0 0 0-0.512 0.512-0.512s0-0.512 0.512-0.512l218.112 99.84-0.512 0.512-0.512 0.512c0.512-0.512 0.512-0.512 0 0.512 0-0.512 0-0.512 0 0" fill="#203F5F" p-id="5760"></path><path d="M418.304 524.288L199.68 424.96l0.512-0.512 0.512-0.512 0.512-0.512 0.512-0.512L420.352 522.24l-0.512 0.512-0.512 0.512-0.512 0.512-0.512 0.512" fill="#214162" p-id="5761"></path><path d="M420.864 521.728L202.752 422.4c1.024-1.024 2.56-1.536 4.096-2.56 1.536-0.512 3.072-1.536 4.608-2.048 1.536-0.512 3.072-1.024 5.12-1.536 1.536-0.512 3.584-0.512 5.12-1.024L440.32 514.56c-2.048 0.512-3.584 0.512-5.632 1.024-2.048 0.512-3.584 1.024-5.12 1.536-1.536 0.512-3.072 1.536-4.608 2.048-1.536 1.024-2.56 2.048-4.096 2.56" fill="#224365" p-id="5762"></path><path d="M443.904 392.704l-220.672-92.16 185.344-21.504 227.328 89.088z" fill="#1F3D5C" p-id="5763"></path><path d="M423.424 431.616L203.776 336.896l-3.072-1.536c-1.024-0.512-1.536-1.024-2.048-2.048-0.512-0.512-1.024-1.536-1.536-2.048-0.512-1.024-0.512-1.536-0.512-2.56l219.136 94.208c0 1.024 0 2.048 0.512 2.56 0.512 1.024 1.024 1.536 1.536 2.56l2.048 2.048c1.536 0.512 2.56 1.024 3.584 1.536" fill="#1B3550" p-id="5764"></path><path d="M416.256 422.912L197.12 328.704v-9.728l219.136 93.696z" fill="#1A334D" p-id="5765"></path><path d="M635.904 368.128c3.584-0.512 6.656-0.512 9.728 0 3.072 0.512 5.632 1.536 8.192 2.56 2.048 1.024 4.096 2.56 5.632 4.608 1.024 1.536 2.048 3.584 2.048 5.632l-0.512 8.192c0 2.56-1.024 4.608-2.56 7.168-1.536 2.048-3.584 4.096-5.632 5.632-2.56 1.536-5.12 3.072-8.192 4.096-3.072 1.024-6.144 2.048-9.728 2.56l-192 25.6c-3.584 0.512-7.168 0.512-10.24 0.512-3.072-0.512-6.144-1.024-8.704-2.048s-4.608-2.048-5.632-3.584c-1.536-1.536-2.048-3.584-2.048-5.632l0.512-10.24c0-2.56 1.024-5.12 2.56-7.168 1.536-2.048 3.584-4.096 6.144-6.144 2.56-1.536 5.632-3.072 8.704-4.096 3.072-1.024 6.656-2.048 10.24-2.56l191.488-25.088z" fill="#254B70" p-id="5766"></path><path d="M416.256 412.672L197.12 318.976v-0.512-0.512-0.512-0.512l219.648 93.696V412.16s-0.512 0-0.512 0.512" fill="#1B3550" p-id="5767"></path><path d="M416.768 410.112L197.12 316.928v-0.512-0.512-0.512-0.512l219.648 93.184v2.048" fill="#1C3753" p-id="5768"></path><path d="M417.28 408.576L197.632 315.392v-0.512-0.512-0.512-0.512l219.648 93.184v2.048" fill="#1D3956" p-id="5769"></path><path d="M417.792 407.04L198.144 313.856v-0.512-0.512-0.512-0.512l219.648 93.184v1.024c0.512 0.512 0.512 0.512 0 1.024" fill="#1E3B59" p-id="5770"></path><path d="M418.816 405.504L199.168 312.32v-0.512-0.512c0-0.512 0 0 0.512-0.512l0.512-0.512L419.84 403.968l-0.512 0.512-0.512 0.512v0.512" fill="#1F3D5C" p-id="5771"></path><path d="M419.84 403.968L200.192 311.296s0-0.512 0.512-0.512c0 0 0-0.512 0.512-0.512 0 0 0-0.512 0.512-0.512l0.512-0.512 219.648 93.184-0.512 0.512-0.512 0.512c-0.512 0-0.512 0-1.024 0.512" fill="#203F5F" p-id="5772"></path><path d="M421.376 402.432L201.728 309.248l0.512-0.512 0.512-0.512 0.512-0.512 0.512-0.512 219.648 92.672-0.512 0.512-0.512 0.512-0.512 0.512c0 0.512-0.512 1.024-0.512 1.024" fill="#214162" p-id="5773"></path><path d="M423.936 399.872L204.288 307.2c1.024-1.024 2.56-1.536 4.096-2.56 1.536-0.512 3.072-1.536 4.608-2.048 1.536-0.512 3.072-1.024 5.12-1.536 1.536-0.512 3.584-0.512 5.12-1.024l220.672 92.16c-2.048 0-3.584 0.512-5.632 1.024-2.048 0.512-3.584 1.024-5.12 1.536-1.536 0.512-3.072 1.536-4.608 2.048-2.048 1.536-3.072 2.048-4.608 3.072" fill="#224365" p-id="5774"></path><path d="M369.152 111.104L148.48 33.792 539.136 0l235.008 71.68zM261.12 941.568l-208.384-123.904 5.632-676.352 216.064 84.992z" fill="#427AA8" p-id="5775"></path><path d="M274.432 226.304L58.368 141.312v-5.632c0-2.048 0-3.584 0.512-5.632 0-2.048 0.512-3.584 0.512-5.632 0.512-2.048 0.512-3.584 1.024-5.12l216.576 83.456c-0.512 2.048-0.512 4.096-1.024 6.144-0.512 2.048-0.512 3.584-1.024 5.632 0 2.048-0.512 4.096-0.512 5.632v6.144" fill="#5B90BC" p-id="5776"></path><path d="M276.992 203.264L60.416 119.808c0.512-1.536 0.512-2.56 1.024-4.096 0.512-1.536 0.512-2.56 1.024-4.096 0.512-1.536 0.512-2.56 1.024-4.096 0.512-1.536 1.024-2.56 1.536-4.096L281.6 185.856c-0.512 1.536-1.024 2.56-1.536 4.096-0.512 1.536-1.024 3.072-1.024 4.096-0.512 1.536-0.512 3.072-1.024 4.096-0.512 2.048-1.024 3.584-1.024 5.12" fill="#5B90BC" p-id="5777"></path><path d="M281.6 185.856L65.024 103.424c0.512-1.024 1.024-2.048 1.024-3.072l1.536-3.072 1.536-3.072 1.536-3.072 217.088 81.408-1.536 3.072c-0.512 1.024-1.024 2.048-1.536 3.584s-1.024 2.048-1.536 3.584l-1.536 3.072" fill="#5B90BC" p-id="5778"></path><path d="M287.232 172.544L70.144 91.136l1.536-3.072c0.512-1.024 1.024-2.048 1.536-2.56 0.512-1.024 1.024-2.048 1.536-2.56 0.512-1.024 1.024-2.048 1.536-2.56l217.6 80.896-1.536 3.072-1.536 3.072-1.536 3.072c-1.024 0-1.536 1.024-2.048 2.048M293.888 160.768L76.288 79.872c0.512-1.024 1.024-1.536 1.536-2.56 0.512-1.024 1.024-1.536 2.048-2.56 0.512-1.024 1.024-1.536 2.048-2.56 0.512-1.024 1.536-1.536 2.048-2.56L302.08 149.504c-0.512 1.024-1.536 1.536-2.048 2.56-0.512 1.024-1.536 1.536-2.048 2.56-0.512 1.024-1.536 2.048-2.048 2.56-1.024 1.536-1.536 2.56-2.048 3.584" fill="#5B90BC" p-id="5779"></path><path d="M301.568 149.504L83.968 69.632c0.512-1.024 1.536-1.536 2.048-2.56 0.512-1.024 1.536-1.536 2.048-2.56 0.512-1.024 1.536-1.536 2.048-2.56l2.56-2.56 218.112 79.36-2.56 2.56-2.56 2.56-2.56 2.56c0 1.536-0.512 2.56-1.536 3.072" fill="#5B90BC" p-id="5780"></path><path d="M311.296 139.264L92.672 59.904c1.024-1.024 2.048-2.048 3.072-2.56 1.024-1.024 2.048-1.536 3.072-2.56 1.024-1.024 2.048-1.536 3.072-2.56 1.024-1.024 2.048-1.536 3.072-2.56l219.136 78.848c-1.024 1.024-2.048 1.536-3.584 2.56-1.024 1.024-2.048 1.536-3.072 2.56-1.024 1.024-2.048 2.048-3.072 2.56l-3.072 3.072" fill="#5B90BC" p-id="5781"></path><path d="M324.096 128.512L104.96 49.664c3.072-2.048 6.656-4.096 10.24-6.144 3.584-2.048 7.168-3.584 10.752-4.608 3.584-1.536 7.168-2.56 11.264-3.584 3.584-1.024 7.68-1.536 11.776-2.048l220.672 77.312c-4.096 0.512-8.192 1.024-12.288 2.048-4.096 1.024-7.68 2.048-11.776 3.584-3.584 1.536-7.68 3.072-11.264 5.12-3.584 2.56-7.168 4.608-10.24 7.168" fill="#5B90BC" p-id="5782"></path><path d="M774.144 71.68l184.32 235.52-10.752 216.576c-3.584-2.56-7.168-4.608-10.752-6.656-3.584-2.048-7.168-4.096-11.264-5.632-4.096-1.536-7.68-3.584-11.776-5.12-4.096-1.536-8.192-3.072-12.8-4.096l6.144-129.024-146.944 19.456c-7.168 1.024-13.824 0-19.456-2.048-6.144-2.048-11.264-5.632-15.36-10.24-4.096-4.608-7.68-10.752-9.728-17.408-2.048-6.656-3.072-14.848-3.072-23.04l7.68-200.704-390.144 40.448-16.896 790.528 305.664-57.856c2.56 4.608 4.608 9.216 7.168 13.824 2.56 4.608 5.12 8.704 8.192 12.8 3.072 4.096 5.632 8.192 9.216 11.776 3.072 3.584 6.656 7.68 10.24 11.264L348.16 1021.952c-12.288 2.56-24.064 2.048-34.816-0.512-10.752-2.56-19.968-8.192-28.16-15.36-7.68-7.168-14.336-16.384-18.432-27.648-4.096-10.752-6.656-23.552-6.144-37.376l13.312-715.264c0.512-14.848 3.072-29.184 8.192-42.496 5.12-13.312 11.776-25.088 20.48-35.84 8.704-10.24 18.944-18.944 30.208-25.6 11.264-6.144 23.552-10.24 36.352-11.776l404.992-38.4z m-28.16 284.16l163.84-20.992-154.624-198.656-9.216 219.648" fill="#336699" p-id="5783"></path></svg>