<?xml version="1.0" standalone="no"?><!DOCTYPE svg PUBLIC "-//W3C//DTD SVG 1.1//EN" "http://www.w3.org/Graphics/SVG/1.1/DTD/svg11.dtd"><svg t="1608187781746" class="icon" viewBox="0 0 1024 1024" version="1.1" xmlns="http://www.w3.org/2000/svg" p-id="3193" xmlns:xlink="http://www.w3.org/1999/xlink" width="200" height="200"><defs><style type="text/css"></style></defs><path d="M855.148936 855.148936H925.957447v-555.574468H98.042553v555.574468h691.744681c9.026451 0 16.340426 7.313974 16.340426 16.340426h32.680851c0-9.026451 7.313974-16.340426 16.340425-16.340426z m-130.723404-441.191489h130.723404c9.026451 0 16.340426 7.313974 16.340426 16.340425s-7.313974 16.340426-16.340426 16.340426h-130.723404c-9.026451 0-16.340426-7.313974-16.340426-16.340426s7.313974-16.340426 16.340426-16.340425z m0 98.042553h130.723404c9.026451 0 16.340426 7.313974 16.340426 16.340426s-7.313974 16.340426-16.340426 16.340425h-130.723404c-9.026451 0-16.340426-7.313974-16.340426-16.340425s7.313974-16.340426 16.340426-16.340426z m0 98.042553h130.723404c9.026451 0 16.340426 7.313974 16.340426 16.340426s-7.313974 16.340426-16.340426 16.340425h-130.723404c-9.026451 0-16.340426-7.313974-16.340426-16.340425s7.313974-16.340426 16.340426-16.340426zM653.617021 762.553191c0 9.026451-7.313974 16.340426-16.340425 16.340426h-468.425532A16.338247 16.338247 0 0 1 152.510638 762.553191V392.170213c0-9.026451 7.313974-16.340426 16.340426-16.340426H446.638298c9.026451 0 16.340426 7.313974 16.340425 16.340426h32.680851c0-9.026451 7.313974-16.340426 16.340426-16.340426h125.276596c9.026451 0 16.340426 7.313974 16.340425 16.340426v370.382978z m70.808511-21.787234c-9.026451 0-16.340426-7.313974-16.340426-16.340425s7.313974-16.340426 16.340426-16.340426h130.723404c9.026451 0 16.340426 7.313974 16.340426 16.340426s-7.313974 16.340426-16.340426 16.340425h-130.723404z" fill="#FFFFFF" p-id="3194"></path><path d="M446.638298 408.510638H185.191489v337.702128h435.744681v-337.702128h-108.93617a16.338247 16.338247 0 0 1-16.340426-16.340425h-32.680851c0 9.026451-7.313974 16.340426-16.340425 16.340425z m72.66914 154.236188a16.344783 16.344783 0 0 1 0 29.229753l-217.87234 108.93617a16.344783 16.344783 0 0 1-15.898145-0.714621A16.338247 16.338247 0 0 1 277.787234 686.297872V468.425532a16.338247 16.338247 0 0 1 23.650043-14.614877l217.870161 108.936171z" fill="#F2EBD9" p-id="3195"></path><path d="M991.319149 201.531915v-98.042553H32.680851v98.042553h958.638298z m-54.468085-65.361702c0.093685 0 0.185191 0.013072 0.278876 0.013072a16.322996 16.322996 0 0 1 15.994009 14.978724c0.037038 0.446638 0.06754 0.893277 0.06754 1.346451 0 0.4096-0.032681 0.814843-0.061004 1.217906a16.318638 16.318638 0 0 1-15.061515 15.061515c-0.403064 0.030502-0.806128 0.061004-1.217906 0.061004-0.455353 0-0.901991-0.032681-1.346451-0.06754a16.327353 16.327353 0 0 1-14.926434-14.926434 16.240204 16.240204 0 0 1-0.067541-1.346451c0-0.4096 0.032681-0.814843 0.061005-1.217907 0.625294-8.451268 7.664749-15.12034 16.279421-15.12034z m-76.255319 0c0.093685 0 0.185191 0.013072 0.278876 0.013072a16.322996 16.322996 0 0 1 15.994009 14.978724c0.037038 0.446638 0.06754 0.893277 0.06754 1.346451 0 0.4096-0.032681 0.814843-0.061004 1.217906a16.318638 16.318638 0 0 1-15.061515 15.061515c-0.403064 0.030502-0.806128 0.061004-1.217906 0.061004-0.455353 0-0.901991-0.032681-1.346451-0.06754a16.327353 16.327353 0 0 1-14.926434-14.926434 16.240204 16.240204 0 0 1-0.067541-1.346451c0-0.4096 0.032681-0.814843 0.061004-1.217907 0.625294-8.451268 7.664749-15.12034 16.279422-15.12034z m-76.255319 0c0.093685 0 0.185191 0.013072 0.278876 0.013072a16.322996 16.322996 0 0 1 15.994009 14.978724c0.037038 0.446638 0.06754 0.893277 0.06754 1.346451 0 0.4096-0.032681 0.814843-0.061004 1.217906a16.318638 16.318638 0 0 1-15.061515 15.061515c-0.403064 0.030502-0.806128 0.061004-1.217906 0.061004-0.455353 0-0.901991-0.032681-1.346452-0.06754a16.327353 16.327353 0 0 1-14.926434-14.926434 16.240204 16.240204 0 0 1-0.06754-1.346451c0-0.4096 0.032681-0.814843 0.061004-1.217907 0.625294-8.451268 7.664749-15.12034 16.279422-15.12034z" fill="#6DA8D6" p-id="3196"></path><path d="M32.680851 234.212766v686.297872h958.638298v-686.297872H32.680851zM958.638298 871.489362c0 9.026451-7.313974 16.340426-16.340426 16.340425h-87.148936a16.338247 16.338247 0 0 1-16.340425-16.340425h-32.680851c0 9.026451-7.313974 16.340426-16.340426 16.340425h-708.085106A16.338247 16.338247 0 0 1 65.361702 871.489362V283.234043c0-9.026451 7.313974-16.340426 16.340426-16.340426h860.595744c9.026451 0 16.340426 7.313974 16.340426 16.340426v588.255319z" fill="#98D9D5" p-id="3197"></path><path d="M1007.659574 70.808511H16.340426A16.338247 16.338247 0 0 0 0 87.148936v849.702128c0 9.026451 7.313974 16.340426 16.340426 16.340425h991.319148c9.026451 0 16.340426-7.313974 16.340426-16.340425V87.148936c0-9.026451-7.313974-16.340426-16.340426-16.340425z m-16.340425 32.680851v98.042553H32.680851v-98.042553h958.638298z m-958.638298 817.021276v-686.297872h958.638298v686.297872H32.680851z" fill="#082947" p-id="3198"></path><path d="M844.32286 153.857089a16.327353 16.327353 0 0 0 14.926434 14.926434c0.44446 0.037038 0.891098 0.06754 1.346451 0.067541 0.411779 0 0.814843-0.032681 1.217906-0.061004a16.318638 16.318638 0 0 0 15.061515-15.061515c0.030502-0.403064 0.061004-0.806128 0.061004-1.217907a17.190128 17.190128 0 0 0-0.06754-1.346451 16.322996 16.322996 0 0 0-15.994009-14.978723c-0.093685 0-0.183013-0.013072-0.278876-0.013073-8.614672 0-15.654128 6.669072-16.279422 15.12252-0.030502 0.403064-0.061004 0.806128-0.061004 1.217906 0 0.450996 0.032681 0.899813 0.067541 1.344272zM920.578179 153.857089a16.327353 16.327353 0 0 0 14.926434 14.926434c0.44446 0.037038 0.891098 0.06754 1.346451 0.067541 0.411779 0 0.814843-0.032681 1.217906-0.061004a16.318638 16.318638 0 0 0 15.061515-15.061515c0.030502-0.403064 0.061004-0.806128 0.061004-1.217907a17.190128 17.190128 0 0 0-0.06754-1.346451 16.322996 16.322996 0 0 0-15.994009-14.978723c-0.093685 0-0.183013-0.013072-0.278876-0.013073-8.614672 0-15.654128 6.669072-16.279421 15.12252-0.030502 0.403064-0.061004 0.806128-0.061005 1.217906 0 0.450996 0.032681 0.899813 0.067541 1.344272zM768.06754 153.857089a16.327353 16.327353 0 0 0 14.926434 14.926434c0.44446 0.037038 0.891098 0.06754 1.346452 0.067541 0.411779 0 0.814843-0.032681 1.217906-0.061004a16.318638 16.318638 0 0 0 15.061515-15.061515c0.030502-0.403064 0.061004-0.806128 0.061004-1.217907a17.190128 17.190128 0 0 0-0.06754-1.346451 16.322996 16.322996 0 0 0-15.994009-14.978723c-0.093685 0-0.183013-0.013072-0.278876-0.013073-8.614672 0-15.654128 6.669072-16.279422 15.12252-0.030502 0.403064-0.061004 0.806128-0.061004 1.217906 0 0.450996 0.032681 0.899813 0.06754 1.344272zM724.425532 446.638298h130.723404c9.026451 0 16.340426-7.313974 16.340426-16.340426s-7.313974-16.340426-16.340426-16.340425h-130.723404c-9.026451 0-16.340426 7.313974-16.340426 16.340425s7.313974 16.340426 16.340426 16.340426zM724.425532 544.680851h130.723404c9.026451 0 16.340426-7.313974 16.340426-16.340425s-7.313974-16.340426-16.340426-16.340426h-130.723404c-9.026451 0-16.340426 7.313974-16.340426 16.340426s7.313974 16.340426 16.340426 16.340425zM724.425532 642.723404h130.723404c9.026451 0 16.340426-7.313974 16.340426-16.340425s-7.313974-16.340426-16.340426-16.340426h-130.723404c-9.026451 0-16.340426 7.313974-16.340426 16.340426s7.313974 16.340426 16.340426 16.340425zM871.489362 724.425532c0-9.026451-7.313974-16.340426-16.340426-16.340426h-130.723404c-9.026451 0-16.340426 7.313974-16.340426 16.340426s7.313974 16.340426 16.340426 16.340425h130.723404c9.026451 0 16.340426-7.313974 16.340426-16.340425z" fill="#082947" p-id="3199"></path><path d="M475.46063 577.361702L310.468085 494.866519v164.990366z" fill="#F2484B" p-id="3200"></path><path d="M285.536953 454.525277A16.338247 16.338247 0 0 0 277.787234 468.425532v217.87234a16.338247 16.338247 0 0 0 23.647864 14.614877l217.87234-108.93617a16.344783 16.344783 0 0 0 0-29.229753l-217.87234-108.936171a16.333889 16.333889 0 0 0-15.898145 0.714622zM475.46063 577.361702L310.468085 659.856885v-164.992545L475.46063 577.361702z" fill="#082947" p-id="3201"></path><path d="M637.276596 375.829787H512c-9.026451 0-16.340426 7.313974-16.340426 16.340426s7.313974 16.340426 16.340426 16.340425h108.93617v337.702128H185.191489v-337.702128h261.446809c9.026451 0 16.340426-7.313974 16.340425-16.340425s-7.313974-16.340426-16.340425-16.340426H168.851064A16.338247 16.338247 0 0 0 152.510638 392.170213v370.382978c0 9.026451 7.313974 16.340426 16.340426 16.340426h468.425532c9.026451 0 16.340426-7.313974 16.340425-16.340426V392.170213c0-9.026451-7.313974-16.340426-16.340425-16.340426z" fill="#082947" p-id="3202"></path><path d="M942.297872 266.893617h-860.595744A16.338247 16.338247 0 0 0 65.361702 283.234043v588.255319c0 9.026451 7.313974 16.340426 16.340426 16.340425h708.085106c9.026451 0 16.340426-7.313974 16.340426-16.340425s-7.313974-16.340426-16.340426-16.340426H98.042553v-555.574468h827.914894v555.574468h-70.808511c-9.026451 0-16.340426 7.313974-16.340425 16.340426s7.313974 16.340426 16.340425 16.340425h87.148936c9.026451 0 16.340426-7.313974 16.340426-16.340425V283.234043c0-9.026451-7.313974-16.340426-16.340426-16.340426z" fill="#082947" p-id="3203"></path></svg>