<?xml version="1.0" standalone="no"?><!DOCTYPE svg PUBLIC "-//W3C//DTD SVG 1.1//EN" "http://www.w3.org/Graphics/SVG/1.1/DTD/svg11.dtd"><svg t="1608184997657" class="icon" viewBox="0 0 1024 1024" version="1.1" xmlns="http://www.w3.org/2000/svg" p-id="2715" xmlns:xlink="http://www.w3.org/1999/xlink" width="200" height="200"><defs><style type="text/css"></style></defs><path d="M947.1 801.46H76.9c-5.52 0-10 4.48-10 10v128.7c0 5.52 4.48 10 10 10h870.2c5.52 0 10-4.48 10-10v-128.7c0-5.52-4.48-10-10-10z m-10 128.7H86.9v-108.7h41.76v54.34c0 5.54 4.48 10 10 10s10-4.46 10-10v-54.34H182v28.26c0 5.52 4.48 10 10 10s10-4.48 10-10v-28.26h33.34v54.34c0 5.54 4.46 10 10 10 5.52 0 10-4.46 10-10v-54.34h33.32v28.26c0 5.52 4.48 10 10 10s10-4.48 10-10v-28.26H342v54.34c0 5.54 4.48 10 10 10s10-4.46 10-10v-54.34h33.34v28.26c0 5.52 4.46 10 10 10 5.52 0 10-4.48 10-10v-28.26h33.32v54.34c0 5.54 4.48 10 10 10s10-4.46 10-10v-54.34H502v28.26c0 5.52 4.48 10 10 10s10-4.48 10-10v-28.26h33.34v54.34c0 5.54 4.46 10 10 10 5.52 0 10-4.46 10-10v-54.34h33.32v28.26c0 5.52 4.48 10 10 10s10-4.48 10-10v-28.26H662v54.34c0 5.54 4.48 10 10 10s10-4.46 10-10v-54.34h33.32v28.26c0 5.52 4.48 10 10 10 5.54 0 10-4.48 10-10v-28.26h33.34v54.34c0 5.54 4.48 10 10 10s10-4.46 10-10v-54.34H822v28.26c0 5.52 4.48 10 10 10s10-4.48 10-10v-28.26h33.34v54.34c0 5.54 4.48 10 10 10s10-4.46 10-10v-54.34h41.76v108.7z" fill="#23130D" p-id="2716"></path><path d="M937.1 821.46v108.7H86.9v-108.7h41.76v54.34c0 5.54 4.48 10 10 10s10-4.46 10-10v-54.34H182v28.26c0 5.52 4.48 10 10 10s10-4.48 10-10v-28.26h33.34v54.34c0 5.54 4.46 10 10 10 5.52 0 10-4.46 10-10v-54.34h33.32v28.26c0 5.52 4.48 10 10 10s10-4.48 10-10v-28.26H342v54.34c0 5.54 4.48 10 10 10s10-4.46 10-10v-54.34h33.34v28.26c0 5.52 4.46 10 10 10 5.52 0 10-4.48 10-10v-28.26h33.32v54.34c0 5.54 4.48 10 10 10s10-4.46 10-10v-54.34H502v28.26c0 5.52 4.48 10 10 10s10-4.48 10-10v-28.26h33.34v54.34c0 5.54 4.46 10 10 10 5.52 0 10-4.46 10-10v-54.34h33.32v28.26c0 5.52 4.48 10 10 10s10-4.48 10-10v-28.26H662v54.34c0 5.54 4.48 10 10 10s10-4.46 10-10v-54.34h33.32v28.26c0 5.52 4.48 10 10 10 5.54 0 10-4.48 10-10v-28.26h33.34v54.34c0 5.54 4.48 10 10 10s10-4.46 10-10v-54.34H822v28.26c0 5.52 4.48 10 10 10s10-4.48 10-10v-28.26h33.34v54.34c0 5.54 4.48 10 10 10s10-4.46 10-10v-54.34h41.76z" fill="#E1E1E5" p-id="2717"></path><path d="M947.1 476.02h-25.04C916.72 253.34 733.94 73.84 510 73.84S103.28 253.34 97.94 476.02H76.9c-5.52 0-10 4.48-10 10v128.7c0 5.52 4.48 10 10 10h870.2c5.52 0 10-4.48 10-10v-128.7c0-5.52-4.48-10-10-10zM510 93.84c212.9 0 386.72 170.54 392.06 382.18H806c-5.3-158.7-136.04-286.18-296-286.18s-290.7 127.48-296 286.18H117.94C123.28 264.38 297.1 93.84 510 93.84z m275.98 382.18H234.02c5.28-147.66 127.04-266.18 275.98-266.18s270.7 118.52 275.98 266.18z m151.12 128.7h-41.76v-54.36c0-5.52-4.48-10-10-10s-10 4.48-10 10v54.36H842v-28.26c0-5.52-4.48-10-10-10s-10 4.48-10 10v28.26h-33.34v-54.36c0-5.52-4.48-10-10-10s-10 4.48-10 10v54.36h-33.32v-28.26c0-5.52-4.48-10-10-10-5.54 0-10 4.48-10 10v28.26H682v-54.36c0-5.52-4.48-10-10-10s-10 4.48-10 10v54.36h-33.34v-28.26c0-5.52-4.48-10-10-10s-10 4.48-10 10v28.26h-33.32v-54.36c0-5.52-4.48-10-10-10-5.54 0-10 4.48-10 10v54.36H522v-28.26c0-5.52-4.48-10-10-10s-10 4.48-10 10v28.26h-33.34v-54.36c0-5.52-4.46-10-10-10-5.52 0-10 4.48-10 10v54.36h-33.32v-28.26c0-5.54-4.48-10-10-10s-10 4.46-10 10v28.26H362v-54.36c0-5.52-4.48-10-10-10s-10 4.48-10 10v54.36h-33.34v-28.26c0-5.54-4.46-10-10-10-5.52 0-10 4.46-10 10v28.26h-33.32v-54.36c0-5.52-4.48-10-10-10s-10 4.48-10 10v54.36H202v-28.26c0-5.54-4.48-10-10-10s-10 4.46-10 10v28.26H148.66v-54.36c0-5.52-4.48-10-10-10s-10 4.48-10 10v54.36H86.9v-108.7h850.2v108.7z" fill="#23130D" p-id="2718"></path><path d="M937.1 496.02v108.7h-41.76v-54.36c0-5.52-4.48-10-10-10s-10 4.48-10 10v54.36H842v-28.26c0-5.52-4.48-10-10-10s-10 4.48-10 10v28.26h-33.34v-54.36c0-5.52-4.48-10-10-10s-10 4.48-10 10v54.36h-33.32v-28.26c0-5.52-4.48-10-10-10-5.54 0-10 4.48-10 10v28.26H682v-54.36c0-5.52-4.48-10-10-10s-10 4.48-10 10v54.36h-33.34v-28.26c0-5.52-4.48-10-10-10s-10 4.48-10 10v28.26h-33.32v-54.36c0-5.52-4.48-10-10-10-5.54 0-10 4.48-10 10v54.36H522v-28.26c0-5.52-4.48-10-10-10s-10 4.48-10 10v28.26h-33.34v-54.36c0-5.52-4.46-10-10-10-5.52 0-10 4.48-10 10v54.36h-33.32v-28.26c0-5.54-4.48-10-10-10s-10 4.46-10 10v28.26H362v-54.36c0-5.52-4.48-10-10-10s-10 4.48-10 10v54.36h-33.34v-28.26c0-5.54-4.46-10-10-10-5.52 0-10 4.46-10 10v28.26h-33.32v-54.36c0-5.52-4.48-10-10-10s-10 4.48-10 10v54.36H202v-28.26c0-5.54-4.48-10-10-10s-10 4.46-10 10v28.26H148.66v-54.36c0-5.52-4.48-10-10-10s-10 4.48-10 10v54.36H86.9v-108.7h850.2zM902.06 476.02H806c-0.86-25.84-5.04-50.86-12.14-74.62-4.12-13.74-9.18-27.08-15.16-39.9a296.728 296.728 0 0 0-29.52-49.96c-4.9-6.7-10.08-13.18-15.5-19.44-4.86-5.6-9.9-11-15.16-16.2a295.068 295.068 0 0 0-30.68-26.56c-5.04-3.8-10.22-7.46-15.5-10.94-4.96-3.26-10.02-6.36-15.16-9.32-5.08-2.92-10.24-5.7-15.5-8.3-4.96-2.5-10.02-4.84-15.16-7.04-5.1-2.2-10.28-4.26-15.52-6.16-5-1.82-10.04-3.5-15.16-5.04-5.1-1.56-10.28-2.98-15.5-4.24-5-1.24-10.06-2.34-15.16-3.3-5.12-0.98-10.3-1.82-15.5-2.52-5.02-0.66-10.08-1.22-15.16-1.64-5.14-0.42-10.32-0.7-15.52-0.86-3-0.1-6-0.14-9-0.14-1.68 0-3.34 0.02-5 0.04-5.2 0.08-10.38 0.32-15.52 0.68-5.08 0.34-10.14 0.82-15.16 1.42-5.2 0.62-10.38 1.38-15.5 2.3-5.1 0.88-10.16 1.9-15.16 3.06-5.22 1.2-10.4 2.54-15.5 4.02-5.12 1.46-10.16 3.06-15.16 4.8-5.24 1.82-10.42 3.78-15.52 5.88-5.12 2.12-10.18 4.38-15.16 6.78-5.26 2.5-10.42 5.18-15.5 8-5.16 2.86-10.2 5.86-15.16 9-5.28 3.36-10.46 6.88-15.5 10.54-5.18 3.78-10.24 7.7-15.16 11.8-5.34 4.44-10.52 9.06-15.52 13.86-5.24 4.98-10.3 10.2-15.16 15.58-5.42 5.98-10.58 12.18-15.5 18.6-4.94 6.44-9.62 13.1-14.02 19.94a294.508 294.508 0 0 0-30.66 62.92c-8.28 23.8-13.6 48.98-15.5 75.08-0.3 3.94-0.5 7.9-0.64 11.88H117.94c0.44-17.48 2.02-34.66 4.7-51.5 3.42-21.7 8.64-42.82 15.5-63.18 4.38-13.08 9.46-25.86 15.16-38.28 4.74-10.32 9.9-20.4 15.5-30.22 4.76-8.38 9.82-16.56 15.16-24.54 4.92-7.36 10.1-14.54 15.52-21.54 4.86-6.3 9.92-12.46 15.16-18.46 5-5.74 10.16-11.32 15.5-16.74 4.92-5.02 9.96-9.9 15.16-14.66a395.4 395.4 0 0 1 29.52-24.52c5.06-3.82 10.24-7.52 15.5-11.08 4.98-3.38 10.02-6.64 15.16-9.78 5.1-3.14 10.28-6.16 15.52-9.04a376.124 376.124 0 0 1 30.66-15.22c5-2.24 10.06-4.34 15.16-6.34 5.1-2.02 10.28-3.94 15.5-5.72 5-1.74 10.06-3.38 15.16-4.9 5.14-1.54 10.3-2.98 15.52-4.32 5.02-1.28 10.08-2.46 15.16-3.54 5.14-1.1 10.3-2.1 15.5-2.98 5.02-0.86 10.08-1.62 15.16-2.28 5.14-0.68 10.3-1.26 15.5-1.74 5.02-0.44 10.08-0.8 15.16-1.06 5.14-0.28 10.32-0.44 15.52-0.5 1.66-0.02 3.34-0.04 5-0.04 3.02 0 6.02 0.04 9 0.1 5.2 0.12 10.38 0.34 15.52 0.66 5.08 0.32 10.14 0.72 15.16 1.22 5.2 0.54 10.36 1.16 15.5 1.9 5.08 0.7 10.14 1.52 15.16 2.46 5.2 0.92 10.36 1.98 15.5 3.14 5.08 1.12 10.14 2.36 15.16 3.7 5.22 1.4 10.38 2.9 15.52 4.5a369.83 369.83 0 0 1 30.66 11c5.12 2.06 10.16 4.24 15.16 6.52 5.24 2.4 10.4 4.9 15.5 7.5 5.12 2.62 10.18 5.34 15.16 8.18 5.24 2.96 10.42 6.06 15.52 9.28 5.14 3.24 10.2 6.58 15.16 10.06 5.26 3.66 10.44 7.46 15.5 11.38 4.76 3.66 9.44 7.44 14.02 11.32 5.28 4.48 10.46 9.1 15.5 13.86 5.2 4.88 10.26 9.92 15.16 15.06a395.72 395.72 0 0 1 30.66 36.34c5.44 7.26 10.62 14.74 15.52 22.38 5.38 8.34 10.44 16.88 15.16 25.64 5.64 10.4 10.82 21.1 15.5 32.04 5.82 13.58 10.9 27.54 15.16 41.86a388.7 388.7 0 0 1 15.5 86.64c0.34 5.12 0.58 10.28 0.7 15.44z" fill="#F9C139" p-id="2719"></path><path d="M947.1 662.16H165.2c-1.32-0.02-2.66 0.24-3.96 0.78l-88.2 36.88c-0.18 0.08-0.32 0.18-0.48 0.26-0.42 0.2-0.84 0.4-1.22 0.66-0.26 0.18-0.46 0.38-0.7 0.56-0.28 0.22-0.56 0.44-0.82 0.68-0.24 0.24-0.42 0.52-0.64 0.78-0.2 0.24-0.42 0.46-0.6 0.74-0.24 0.38-0.44 0.78-0.64 1.18-0.08 0.18-0.2 0.34-0.28 0.52v0.02c-0.26 0.62-0.44 1.24-0.58 1.88-0.04 0.28-0.04 0.54-0.08 0.82-0.04 0.38-0.1 0.74-0.1 1.14 0 0.38 0.06 0.76 0.1 1.14 0.04 0.26 0.04 0.54 0.08 0.8 0.14 0.64 0.32 1.28 0.58 1.88v0.04c0.24 0.54 0.52 1.04 0.82 1.52 0.08 0.12 0.18 0.24 0.26 0.36 0.26 0.36 0.54 0.72 0.84 1.04 0.12 0.12 0.24 0.26 0.38 0.38 0.34 0.34 0.7 0.64 1.08 0.9 0.1 0.08 0.18 0.16 0.3 0.24 0.48 0.32 1.02 0.6 1.56 0.84 0.04 0.02 0.08 0.06 0.14 0.08l88.2 36.9c1.26 0.52 2.58 0.76 3.86 0.76h0.18l742.36-0.02c0.06 0.02 0.12 0.02 0.18 0.02h39.28c1.22 0 2.36-0.24 3.42-0.64 0.16-0.06 0.32-0.08 0.48-0.14 0.14-0.06 0.24-0.14 0.38-0.2 3.38-1.62 5.72-5.02 5.72-9.02v-73.78c0-5.52-4.48-10-10-10z m-792 68.76l-52.28-21.86 52.28-21.88v43.74z m742.72 5l-722.72 0.02v-16.88h722.72v16.86z m0-36.86H175.1v-16.9h722.72v16.9z m39.28 36.88h-19.28l-0.02-26.88 0.02-26.9h19.28v53.78z" fill="#23130D" p-id="2720"></path><path d="M937.1 682.16v53.78h-19.28l-0.02-26.88 0.02-26.9z" fill="#E1E1E5" p-id="2721"></path><path d="M937.1 717.666v18.274h-19.28l-0.02-9.134 0.02-9.14z" opacity=".2" p-id="2722"></path><path d="M175.1 682.16h722.72v16.9H175.1zM897.82 719.06v16.86l-722.72 0.02v-16.88z" fill="#EC7063" p-id="2723"></path><path d="M897.82 719.06v16.86l-722.72 0.02v-16.88z" opacity=".2" p-id="2724"></path><path d="M155.1 687.18v43.74l-52.28-21.86z" fill="#E1E1E5" p-id="2725"></path><path d="M155.1 716.58v14.34l-52.28-21.86 17.14-7.18z" opacity=".2" p-id="2726"></path><path d="M138.14 361.34v114.68h-15.5v-51.5c3.42-21.7 8.64-42.82 15.5-63.18zM168.8 292.84v183.18h-15.5v-152.96c4.74-10.32 9.9-20.4 15.5-30.22zM199.48 246.76v229.26h-15.52V268.3c4.92-7.36 10.1-14.54 15.52-21.54zM230.14 211.56v177.5c-8.28 23.8-13.6 48.98-15.5 75.08V228.3c5-5.74 10.16-11.32 15.5-16.74zM260.8 183.42v142.72c-5.64 8.74-10.8 17.78-15.5 27.1V196.9c5.04-4.62 10.22-9.12 15.5-13.48z" opacity=".1" p-id="2727"></path><path d="M290.32 161.3v126.3c-5.42 5.98-10.58 12.18-15.5 18.6V172.38c5.06-3.82 10.24-7.52 15.5-11.08zM321 142.48v115.68c-5.34 4.44-10.52 9.06-15.52 13.86V151.52c5.1-3.14 10.28-6.16 15.52-9.04zM351.66 127.26v108.56c-5.28 3.36-10.46 6.88-15.5 10.54V134.52c5.1-2.54 10.28-4.96 15.5-7.26zM382.32 115.2v103.62c-5.26 2.5-10.42 5.18-15.5 8V120.92c5.1-2.02 10.28-3.94 15.5-5.72zM413 105.98v100.18c-5.24 1.82-10.42 3.78-15.52 5.88V110.3c5.14-1.54 10.3-2.98 15.52-4.32zM443.66 99.46v97.88c-5.22 1.2-10.4 2.54-15.5 4.02V102.44c5.14-1.1 10.3-2.1 15.5-2.98zM474.32 95.44v96.54c-5.2 0.62-10.38 1.38-15.5 2.3V97.18c5.14-0.68 10.3-1.26 15.5-1.74zM505 93.88v96c-5.2 0.08-10.38 0.32-15.52 0.68V94.38c5.14-0.28 10.32-0.44 15.52-0.5z" opacity=".1" p-id="2728"></path><path d="M534.52 94.6v96.24c-5.14-0.42-10.32-0.7-15.52-0.86V93.94c5.2 0.12 10.38 0.34 15.52 0.66zM565.18 97.72V195c-5.12-0.98-10.3-1.82-15.5-2.52V95.82c5.2 0.54 10.36 1.16 15.5 1.9zM595.84 103.32v99.22c-5.1-1.56-10.28-2.98-15.5-4.24V100.18c5.2 0.92 10.36 1.98 15.5 3.14zM626.52 111.52v102.22c-5.1-2.2-10.28-4.26-15.52-6.16V107.02c5.22 1.4 10.38 2.9 15.52 4.5zM657.18 122.52v106.56c-5.08-2.92-10.24-5.7-15.5-8.3v-104.2c5.22 1.88 10.4 3.84 15.5 5.94zM687.84 136.54v112.8c-5.04-3.8-10.22-7.46-15.5-10.94V129.04c5.24 2.4 10.4 4.9 15.5 7.5zM718.52 154v121.9a292.4 292.4 0 0 0-15.52-14.36V144.72c5.24 2.96 10.42 6.06 15.52 9.28zM749.18 175.44v136.1c-4.9-6.7-10.08-13.18-15.5-19.44V164.06c5.26 3.66 10.44 7.46 15.5 11.38z" opacity=".1" p-id="2729"></path><path d="M778.7 200.62v160.88c-4.64-9.98-9.82-19.64-15.5-28.98V186.76c5.28 4.48 10.46 9.1 15.5 13.86zM809.36 232.94v243.08H806c-0.86-25.84-5.04-50.86-12.14-74.62v-185.72c5.34 5.6 10.5 11.36 15.5 17.26zM840.04 274.4v201.62h-15.52v-224c5.44 7.26 10.62 14.74 15.52 22.38zM870.7 332.08v143.94h-15.5v-175.98c5.64 10.4 10.82 21.1 15.5 32.04zM901.36 460.58v15.44h-15.5v-102.08a388.7 388.7 0 0 1 15.5 86.64z" opacity=".1" p-id="2730"></path><path d="M86.9 908h850.2v22.16H86.9z" opacity=".2" p-id="2731"></path></svg>